#!OML:ASF H:\Terrain\Patient Classification 1\Animal2\Wednesday\Animal2.ASF
:FULLY-SPECIFIED
:DEGREES
284
root 19.5074 17.7613 -15.8828 1.14061 16.6465 -4.02956
lowerback 0.204738 5.77607 9.18863
upperback -7.11797 7.87598 -6.45448
thorax -5.5465 3.29149 -12.424
lowerneck -3.04787 10.172 17.3533
upperneck 7.36926 14.8817 -20.7738
head 5.64259 7.10111 -8.33824
rclavicle -5.36719e-014 -6.36111e-015
rhumerus 88.628 5.35524 -25.9757
rradius 52.035
rwrist -25.8132
rhand -19.4411 18.2123
rfingers 7.12502
rthumb 6.87933 -11.6559
lclavicle -5.36719e-014 -6.36111e-015
lhumerus -28.5231 4.46007 13.1463
lradius 50.8755
lwrist 62.47
lhand -17.4533 20.7777
lfingers 7.12502
lthumb 8.7979 50.5743
rfemur -2.47379 -7.75996 24.991
rtibia 22.3698
rfoot -24.454 -9.09647
rtoes 30.6997
lfemur -17.4719 -9.21816 -15.6505
ltibia 30.6084
lfoot -15.8367 -20.3575
ltoes -0.51787
285
root 19.5048 17.7648 -15.8477 1.18443 17.06 -3.92028
lowerback 0.2286 5.63618 8.90062
upperback -7.35171 7.67715 -6.57309
thorax -5.88743 3.16775 -12.4244
lowerneck -2.76476 10.0858 17.7793
upperneck 7.52449 14.7939 -20.7108
head 5.64866 7.08707 -8.41456
rclavicle 2.14687e-014 -1.90833e-014
rhumerus 88.7386 1.83729 -25.6885
rradius 51.9761
rwrist -26.7075
rhand -19.5155 18.1392
rfingers 7.12502
rthumb 6.80752 -11.7313
lclavicle 2.14687e-014 -1.90833e-014
lhumerus -29.0426 3.62361 12.6086
lradius 51.5496
lwrist 63.1065
lhand -16.8304 20.0638
lfingers 7.12502
lthumb 9.39902 49.8342
rfemur -2.72939 -7.95436 24.6817
rtibia 22.3714
rfoot -24.4242 -8.78426
rtoes 31.753
lfemur -17.3878 -9.15133 -15.753
ltibia 30.5298
lfoot -15.654 -20.8305
ltoes -0.234049
286
root 19.503 17.7659 -15.8147 1.04546 17.2772 -3.93741
lowerback 0.333704 5.52988 8.79556
upperback -7.42215 7.5347 -6.65844
thorax -6.06524 3.0825 -12.4857
lowerneck -2.55087 10.0577 17.987
upperneck 7.33531 14.7376 -20.6779
head 5.55597 7.08162 -8.45446
rclavicle 3.10104e-014 1.90833e-014
rhumerus 88.8974 -1.84152 -25.3832
rradius 51.8973
rwrist -27.5254
rhand -19.3456 17.8371
rfingers 7.12502
rthumb 6.97155 -12.0281
lclavicle 3.10104e-014 1.90833e-014
lhumerus -29.2691 3.94903 11.9963
lradius 51.7729
lwrist 62.9084
lhand -16.1615 19.5463
lfingers 7.12502
lthumb 10.0444 49.2866
rfemur -2.78902 -8.03871 24.5008
rtibia 22.2978
rfoot -24.3057 -8.34283
rtoes 33.0582
lfemur -17.1669 -9.07399 -15.7377
ltibia 30.5354
lfoot -15.8233 -20.9864
ltoes -0.68314
287
root 19.5026 17.7592 -15.7847 0.850681 17.3793 -4.12223
lowerback 0.401628 5.4579 8.88795
upperback -7.42397 7.44422 -6.73109
thorax -6.11359 3.02535 -12.6343
lowerneck -2.45369 10.1087 18.0764
upperneck 6.99783 14.7621 -20.677
head 5.45015 7.10525 -8.46787
rclavicle 7.99114e-014 -2.8625e-014
rhumerus 88.793 -5.56075 -25.012
rradius 51.9595
rwrist -28.637
rhand -19.2202 17.9071
rfingers 7.12502
rthumb 7.09263 -11.9541
lclavicle 7.99114e-014 -2.8625e-014
lhumerus -29.4684 4.35175 11.365
lradius 52.0283
lwrist 62.7913
lhand -15.7217 19.6317
lfingers 7.12502
lthumb 10.4687 49.351
rfemur -2.87476 -7.96428 24.5357
rtibia 22.2351
rfoot -24.069 -7.95101
rtoes 34.2513
lfemur -16.9455 -9.06182 -15.522
ltibia 30.5426
lfoot -15.7766 -21.2321
ltoes 0.401255
288
root 19.5044 17.7565 -15.7557 0.611914 17.4234 -4.39838
lowerback 0.508327 5.3691 9.09408
upperback -7.44621 7.34104 -6.77489
thorax -6.20342 2.95127 -12.825
lowerneck -2.49958 10.1201 18.2449
upperneck 6.99998 14.7589 -20.6683
head 5.47071 7.10489 -8.49041
rclavicle -1.66979e-014 -3.33958e-014
rhumerus 88.4761 -9.21846 -24.622
rradius 51.9913
rwrist -29.6782
rhand -19.3079 18.1128
rfingers 7.12502
rthumb 7.00795 -11.7512
lclavicle -1.66979e-014 -3.33958e-014
lhumerus -29.8489 4.33899 10.6975
lradius 52.3978
lwrist 62.9953
lhand -15.2718 19.7908
lfingers 7.12502
lthumb 10.9026 49.4877
rfemur -2.94313 -7.95283 24.6792
rtibia 22.2143
rfoot -23.7908 -7.71911
rtoes 34.764
lfemur -16.6681 -9.01252 -15.221
ltibia 30.5506
lfoot -15.6877 -21.5348
ltoes 1.6931
289
root 19.5083 17.7635 -15.7225 0.521217 17.3994 -4.21145
lowerback 0.502468 5.25448 8.80263
upperback -7.44531 7.16637 -6.87637
thorax -6.265 2.8723 -12.7722
lowerneck -2.63388 10.1513 18.4477
upperneck 7.37624 14.8116 -20.5325
head 5.62172 7.12675 -8.46496
rclavicle 1.37957e-013 -4.13472e-014
rhumerus 88.1048 -12.8723 -24.0847
rradius 52.0563
rwrist -30.6377
rhand -19.2487 18.2546
rfingers 7.12502
rthumb 7.06509 -11.6075
lclavicle 1.37957e-013 -4.13472e-014
lhumerus -30.4674 4.23373 9.99097
lradius 52.783
lwrist 63.4662
lhand -14.9478 19.5071
lfingers 7.12502
lthumb 11.2151 49.1873
rfemur -2.94306 -8.16876 24.3164
rtibia 22.248
rfoot -23.5319 -7.54215
rtoes 33.9258
lfemur -16.3299 -8.94407 -15.4462
ltibia 30.5478
lfoot -16.0666 -21.4519
ltoes 0.702583
290
root 19.5112 17.7655 -15.6906 0.518292 17.3504 -4.01306
lowerback 0.366021 5.09998 8.46682
upperback -7.47896 6.92737 -6.96975
thorax -6.3113 2.76379 -12.6708
lowerneck -2.34762 10.2435 18.8854
upperneck 7.61595 14.9834 -20.4
head 5.70169 7.23987 -8.48309
rclavicle 1.07344e-014 2.06736e-014
rhumerus 87.6708 -16.2752 -23.6418
rradius 52.2051
rwrist -31.4168
rhand -19.0451 18.5698
rfingers 7.12502
rthumb 7.26164 -11.2856
lclavicle 1.07344e-014 2.06736e-014
lhumerus -31.23 4.18033 9.1938
lradius 53.0547
lwrist 64.0052
lhand -14.624 19.3163
lfingers 7.12502
lthumb 11.5274 48.9794
rfemur -3.04256 -8.50833 23.9716
rtibia 22.3725
rfoot -23.3246 -7.22805
rtoes 33.3532
lfemur -16.0666 -8.99243 -15.6649
ltibia 30.5039
lfoot -16.4156 -21.2249
ltoes -0.111201
291
root 19.5097 17.7638 -15.6637 0.422156 17.2442 -4.18656
lowerback 0.336636 4.90783 8.50584
upperback -7.5749 6.66625 -7.0111
thorax -6.46551 2.61161 -12.7517
lowerneck -1.98601 10.2978 18.9405
upperneck 7.30279 15.0297 -20.144
head 5.53549 7.29448 -8.41355
rclavicle 2.8625e-014 3.81667e-014
rhumerus 87.1515 -19.3344 -23.6412
rradius 52.4415
rwrist -31.5914
rhand -19.0597 18.5985
rfingers 7.12502
rthumb 7.24748 -11.2573
lclavicle 2.8625e-014 3.81667e-014
lhumerus -32.0375 4.0769 8.30589
lradius 53.2537
lwrist 64.4986
lhand -13.9917 19.2523
lfingers 7.12502
lthumb 12.1371 48.8803
rfemur -3.19751 -8.57809 24.1077
rtibia 22.5841
rfoot -23.2891 -6.95005
rtoes 34.0993
lfemur -15.8364 -9.06537 -15.4605
ltibia 30.4287
lfoot -16.6738 -21.0333
ltoes -0.401291
292
root 19.5097 17.7637 -15.6364 0.449949 16.9567 -4.17321
lowerback 0.315011 4.78544 8.40441
upperback -7.68668 6.48959 -7.13204
thorax -6.62266 2.50749 -12.8419
lowerneck -1.7935 10.3239 19.0774
upperneck 7.20276 15.0548 -19.9988
head 5.47508 7.3255 -8.39176
rclavicle -8.74653e-015 3.18055e-014
rhumerus 86.2871 -22.3698 -23.5278
rradius 52.797
rwrist -31.783
rhand -19.1866 18.5219
rfingers 7.12502
rthumb 7.12502 -11.3382
lclavicle -8.74653e-015 3.18055e-014
lhumerus -32.787 4.09155 7.4663
lradius 53.4046
lwrist 64.8152
lhand -13.1179 19.2855
lfingers 7.12502
lthumb 12.9795 48.8617
rfemur -3.3882 -8.5287 24.0631
rtibia 22.8095
rfoot -23.3905 -6.7719
rtoes 34.4821
lfemur -15.6433 -9.03262 -15.4598
ltibia 30.3586
lfoot -16.8942 -20.714
ltoes -0.495265
293
root 19.5123 17.759 -15.6115 0.572701 16.5304 -3.91502
lowerback 0.244938 4.71723 8.0899
upperback -7.76823 6.3705 -7.27792
thorax -6.71728 2.45148 -12.8238
lowerneck -1.73876 10.3539 18.9373
upperneck 7.14868 15.0599 -19.68
head 5.41121 7.336 -8.26146
rclavicle -4.37326e-014 -4.77083e-014
rhumerus 85.1294 -25.527 -22.9259
rradius 53.1422
rwrist -32.569
rhand -19.1652 18.7612
rfingers 7.12502
rthumb 7.14569 -11.0982
lclavicle -4.37326e-014 -4.77083e-014
lhumerus -33.5588 4.24431 6.72772
lradius 53.4964
lwrist 64.9555
lhand -12.2785 19.5233
lfingers 7.12502
lthumb 13.7886 49.0463
rfemur -3.58674 -8.46474 23.7374
rtibia 23.0151
rfoot -23.4137 -6.44268
rtoes 34.4505
lfemur -15.4382 -9.04708 -15.7344
ltibia 30.2895
lfoot -17.1048 -20.1661
ltoes -0.816465
294
root 19.5108 17.755 -15.5888 0.557398 16.0301 -3.67136
lowerback 0.246911 4.61585 7.73895
upperback -7.762 6.21002 -7.36315
thorax -6.77625 2.38478 -12.7138
lowerneck -1.69112 10.3719 18.7649
upperneck 6.99498 15.0326 -19.3588
head 5.30974 7.33034 -8.12979
rclavicle 1.82882e-014 3.18055e-015
rhumerus 83.8952 -28.6336 -22.2263
rradius 53.4752
rwrist -33.5814
rhand -18.7485 19.1528
rfingers 7.12502
rthumb 7.54795 -10.6925
lclavicle 1.82882e-014 3.18055e-015
lhumerus -34.3972 4.45692 5.98782
lradius 53.5323
lwrist 65.2159
lhand -11.7322 19.5357
lfingers 7.12502
lthumb 14.3151 49.0222
rfemur -3.63685 -8.17589 23.4721
rtibia 23.2102
rfoot -23.4894 -6.17993
rtoes 34.479
lfemur -15.0786 -9.00141 -15.9909
ltibia 30.2114
lfoot -17.4909 -19.57
ltoes -2.20593
295
root 19.507 17.7529 -15.5639 0.508386 15.4466 -3.58427
lowerback 0.145299 4.49671 7.52168
upperback -7.71437 6.02757 -7.41422
thorax -6.72689 2.30941 -12.6272
lowerneck -1.51371 10.3459 18.9506
upperneck 6.73103 14.9882 -19.4655
head 5.21517 7.3214 -8.21081
rclavicle 2.06736e-014 -3.18055e-014
rhumerus 82.4049 -31.6539 -21.4913
rradius 53.9506
rwrist -34.7742
rhand -18.194 19.7303
rfingers 7.12502
rthumb 8.08311 -10.0951
lclavicle 2.06736e-014 -3.18055e-014
lhumerus -35.2549 4.63629 5.13514
lradius 53.4448
lwrist 65.7186
lhand -11.5249 19.3409
lfingers 7.12502
lthumb 14.5148 48.8132
rfemur -3.6419 -7.80942 23.4054
rtibia 23.3521
rfoot -23.6234 -5.97512
rtoes 34.4989
lfemur -14.7477 -8.60558 -16.062
ltibia 30.1611
lfoot -17.8624 -19.2768
ltoes -3.45632
296
root 19.5033 17.746 -15.5399 0.477595 14.7527 -3.56312
lowerback -0.0279212 4.3932 7.39948
upperback -7.64565 5.868 -7.45684
thorax -6.5993 2.24631 -12.5773
lowerneck -1.42956 10.3644 19.1073
upperneck 6.66378 15.0103 -19.4809
head 5.1988 7.33972 -8.24248
rclavicle -7.63333e-014 1.27222e-014
rhumerus 80.6226 -34.6482 -20.8006
rradius 54.7341
rwrist -35.591
rhand -17.9492 20.0723
rfingers 7.12502
rthumb 8.31932 -9.74389
lclavicle -7.63333e-014 1.27222e-014
lhumerus -36.1194 4.83443 4.24942
lradius 53.276
lwrist 66.1851
lhand -11.3527 19.3233
lfingers 7.12502
lthumb 14.6807 48.7835
rfemur -3.60341 -7.28798 23.4202
rtibia 23.4261
rfoot -23.6609 -5.73653
rtoes 34.634
lfemur -14.4709 -8.19144 -16.068
ltibia 30.1439
lfoot -18.0764 -18.9849
ltoes -3.64169
297
root 19.4989 17.7402 -15.5208 0.488282 14.0327 -3.54088
lowerback -0.188055 4.31661 7.26597
upperback -7.59008 5.74592 -7.497
thorax -6.48454 2.20123 -12.5209
lowerneck -1.73701 10.3895 19.1844
upperneck 6.98279 15.0084 -19.2896
head 5.33677 7.32597 -8.1734
rclavicle -2.74323e-014 -5.40694e-014
rhumerus 78.7341 -37.5159 -20.2017
rradius 55.4995
rwrist -35.5239
rhand -17.6108 20.2426
rfingers 7.12502
rthumb 8.6459 -9.56035
lclavicle -2.74323e-014 -5.40694e-014
lhumerus -36.9317 5.04746 3.46397
lradius 53.1861
lwrist 66.6094
lhand -10.9508 19.5948
lfingers 7.12502
lthumb 15.0678 49.0264
rfemur -3.58207 -6.58179 23.4708
rtibia 23.4746
rfoot -23.7245 -5.66535
rtoes 34.5837
lfemur -14.2563 -8.00676 -16.0646
ltibia 30.1266
lfoot -18.0645 -18.598
ltoes -2.68193
298
root 19.4944 17.7345 -15.504 0.465568 13.3594 -3.58725
lowerback -0.32239 4.19935 7.18228
upperback -7.55789 5.57396 -7.50648
thorax -6.42265 2.12371 -12.465
lowerneck -1.65236 10.3295 19.2305
upperneck 6.89914 14.9022 -19.1443
head 5.2667 7.28419 -8.14994
rclavicle -6.40087e-014 2.8625e-014
rhumerus 76.7863 -40.2732 -19.4099
rradius 55.9233
rwrist -35.7415
rhand -16.8381 20.4445
rfingers 7.12502
rthumb 9.39159 -9.32624
lclavicle -6.40087e-014 2.8625e-014
lhumerus -37.7335 5.19486 2.69305
lradius 53.0176
lwrist 67.1153
lhand -10.3805 19.7259
lfingers 7.12502
lthumb 15.6172 49.1155
rfemur -3.53589 -5.8466 23.6005
rtibia 23.4929
rfoot -23.8283 -5.5394
rtoes 34.8776
lfemur -14.0588 -7.91754 -15.975
ltibia 30.1169
lfoot -17.9782 -18.3308
ltoes -1.25059
